:SAMPLES-PER-SECOND 30
:FRAME-RANGE 1-564
:FULLY-SPECIFIED
:DEGREES
283
root  13.6574 39.2785 -10.284 -175.213 -13.5164 -175.168
RightUpLeg  -19.5702 -1.8112 1.84809
RightLeg  10.5879 -12.3004 0.458267
RightFoot  1.86235 -0.293595 2.64544
RightToes  1.21801e-010 1.2921e-014 -6.02303e-014
Spine  -8.50229 -6.14383 -0.074565
Spine1  9.55147 -8.54676 8.18509
HEad  13.1604 15.6179 -2.11422
LeftShoulder1  1.85656 -4.46113 -17.5215
LeftArm  7.33546 -6.49322 -62.5702
LeftForeArm  14.8571 -6.4596 -13.2312
LeftHand  -1.43161 19.632 -10.3005
RightShoulder  0.79855 -1.14925 30.9556
RightArm  -36.1609 -10.183 38.2994
RightForeArm  65.2039 -4.33621 -3.21944
RightHand  0.756976 -10.5808 -17.3426
LeftUpLeg  7.25199 8.73182 13.3931
LeftLeg  25.0546 20.431 10.4065
LeftFoot  -0.381381 2.54936 -26.1356
LeftToes  1.70735e-010 3.74918e-011 3.68705e-011
284
root  13.9383 39.31 -11.484 -175.325 -12.0194 -174.963
RightUpLeg  -18.5206 -1.43004 3.13116
RightLeg  12.0367 -11.2472 0.57283
RightFoot  0.364995 -0.0462459 0.475179
RightToes  1.21801e-010 1.2921e-014 -6.02303e-014
Spine  -7.89169 -6.40016 0.495718
Spine1  9.11579 -8.72774 8.35773
HEad  12.9122 16.6537 -1.5579
LeftShoulder1  1.85887 -4.57145 -17.1901
LeftArm  4.01467 -6.88753 -61.7574
LeftForeArm  16.9116 -4.3511 -13.3426
LeftHand  -3.67883 26.692 -18.0928
RightShoulder  0.730693 -1.34653 31.1977
RightArm  -36.2225 -12.003 36.9173
RightForeArm  67.7311 -4.20963 -3.40808
RightHand  0.744146 -10.6917 -16.739
LeftUpLeg  3.36255 8.72739 14.1439
LeftLeg  34.3586 18.4656 13.4377
LeftFoot  5.45193 2.04803 -14.043
LeftToes  1.70735e-010 3.74918e-011 3.68705e-011
285
root  14.1287 39.2796 -12.5706 -175.56 -10.1978 -174.846
RightUpLeg  -17.3887 -2.30578 3.99199
RightLeg  13.6978 -8.64106 1.38044
RightFoot  -2.1958 0.0180235 -0.411876
RightToes  1.21801e-010 1.2921e-014 -6.02303e-014
Spine  -7.34363 -6.23928 2.02951
Spine1  9.18999 -8.2561 7.51435
HEad  12.1436 17.2284 -1.24856
LeftShoulder1  1.82654 -4.30811 -17.6146
LeftArm  1.91646 -7.87788 -60.7413
LeftForeArm  18.736 -2.71331 -13.2789
LeftHand  -6.63969 32.396 -25.616
RightShoulder  0.655364 -1.55984 31.4071
RightArm  -36.033 -12.9809 36.2329
RightForeArm  67.8359 -4.21745 -3.34065
RightHand  0.720588 -10.8647 -15.7726
LeftUpLeg  -0.635695 9.02821 14.2189
LeftLeg  42.0886 14.2763 13.782
LeftFoot  9.30713 0.634741 -3.79624
LeftToes  1.70735e-010 3.74918e-011 3.68705e-011
286
root  14.2955 39.2831 -13.6514 -175.625 -7.67179 -175.003
RightUpLeg  -16.0078 -2.12853 4.74151
RightLeg  14.6459 -6.26391 1.45586
RightFoot  -4.40833 0.00056598 -0.503278
RightToes  1.21801e-010 1.2921e-014 -6.02303e-014
Spine  -7.08198 -5.66093 3.29221
Spine1  9.31313 -7.30381 6.45402
HEad  11.6136 17.6442 -0.875568
LeftShoulder1  1.767 -4.1027 -17.4636
LeftArm  -0.615036 -7.65119 -60.514
LeftForeArm  19.8799 -1.77444 -12.8057
LeftHand  -8.30066 35.1835 -28.8339
RightShoulder  0.686537 -1.47851 31.459
RightArm  -36.424 -13.3975 36.3698
RightForeArm  67.5875 -4.18484 -3.58095
RightHand  0.584467 -10.1564 -14.8433
LeftUpLeg  -4.07393 9.72813 13.6809
LeftLeg  47.1987 8.13169 9.70431
LeftFoot  4.7335 0.666617 -4.92356
LeftToes  1.70735e-010 3.74918e-011 3.68705e-011
287
root  14.436 39.2987 -14.7118 -175.719 -5.18108 -175.42
RightUpLeg  -14.4671 -1.74239 5.14836
RightLeg  15.4002 -4.15598 1.26068
RightFoot  -6.35192 -0.0106847 -0.743142
RightToes  1.21801e-010 1.2921e-014 -6.02303e-014
Spine  -6.41384 -5.06666 3.98178
Spine1  8.90305 -6.38488 5.72244
HEad  11.6932 18.1899 -0.531384
LeftShoulder1  1.66077 -3.71176 -17.2616
LeftArm  -2.12415 -6.65306 -60.4213
LeftForeArm  18.9562 -1.32912 -12.4581
LeftHand  -8.24522 35.9268 -27.9137
RightShoulder  0.732132 -1.35158 31.3711
RightArm  -36.5335 -13.0316 37.1718
RightForeArm  67.1645 -4.20278 -3.5691
RightHand  0.514028 -9.79097 -14.2412
LeftUpLeg  -7.72726 9.74064 12.16
LeftLeg  50.7233 5.03971 7.01863
LeftFoot  0.8191 0.723142 -6.83144
LeftToes  1.70735e-010 3.74918e-011 3.68705e-011
288
root  14.5504 39.3394 -15.7994 -175.835 -2.33191 -176.226
RightUpLeg  -12.8859 -1.80971 5.10104
RightLeg  16.2135 -1.41137 1.13864
RightFoot  -7.97272 -0.0167972 -1.26485
RightToes  1.21801e-010 1.2921e-014 -6.02303e-014
Spine  -5.99587 -4.22718 4.30927
Spine1  8.63404 -5.24447 4.74783
HEad  12.0445 18.83 -0.642384
LeftShoulder1  1.59288 -3.37669 -17.4459
LeftArm  -2.56307 -5.29479 -59.8218
LeftForeArm  18.1356 -1.41673 -12.3851
LeftHand  -7.44271 35.1555 -25.9093
RightShoulder  0.701884 -1.42276 31.1638
RightArm  -36.1675 -11.6552 38.554
RightForeArm  67.0721 -4.26872 -3.21122
RightHand  0.462999 -9.51289 -13.78
LeftUpLeg  -11.176 9.68941 9.73435
LeftLeg  52.1713 5.56466 8.09449
LeftFoot  -1.09392 0.635482 -7.00967
LeftToes  1.70735e-010 3.74918e-011 3.68705e-011
289
root  14.5806 39.3515 -16.8199 -176.088 -0.863023 -176.966
RightUpLeg  -11.1377 -2.72819 4.47385
RightLeg  16.8069 0.78168 1.58182
RightFoot  -9.73503 -0.0376517 -2.0119
RightToes  1.21801e-010 1.2921e-014 -6.02303e-014
Spine  -5.21904 -3.91854 4.83784
Spine1  8.18806 -4.68802 3.64559
HEad  12.116 19.4154 -1.0362
LeftShoulder1  1.51837 -2.93525 -17.9777
LeftArm  -2.86601 -4.2047 -59.1109
LeftForeArm  18.8402 -1.05435 -12.339
LeftHand  -6.14754 32.6216 -23.5123
RightShoulder  0.955441 -0.710943 30.7942
RightArm  -35.1696 -9.92905 40.2438
RightForeArm  66.5348 -4.4249 -2.42879
RightHand  0.438593 -9.32582 -13.7087
LeftUpLeg  -15.0819 7.88873 7.20159
LeftLeg  52.2948 7.76723 11.0833
LeftFoot  -3.69557 0.442996 -6.2947
LeftToes  1.70735e-010 3.74918e-011 3.68705e-011
